<svg width="30" height="31" viewBox="0 0 30 31" fill="none" xmlns="http://www.w3.org/2000/svg">
<rect width="30" height="31" fill="#F5F5F5"/>
<g clip-path="url(#clip0_191_2470)">
<rect width="1440" height="1068" transform="translate(-676 -551)" fill="#E7E6CF"/>
<rect x="-170" y="-393" width="425" height="514" fill="#A8C256" fill-opacity="0.32"/>
<path d="M25.5877 3.41326H4.4127C4.17467 3.41003 3.93832 3.45257 3.71715 3.53843C3.49598 3.62429 3.29432 3.7518 3.12369 3.91368C2.95306 4.07556 2.8168 4.26863 2.72269 4.48186C2.62857 4.6951 2.57846 4.92433 2.5752 5.15646V26.0505C2.57846 26.2826 2.62857 26.5119 2.72269 26.7251C2.8168 26.9384 2.95306 27.1314 3.12369 27.2933C3.29432 27.4552 3.49598 27.5827 3.71715 27.6685C3.93832 27.7544 4.17467 27.7969 4.4127 27.7937H25.5877C25.8257 27.7969 26.0621 27.7544 26.2832 27.6685C26.5044 27.5827 26.7061 27.4552 26.8767 27.2933C27.0473 27.1314 27.1836 26.9384 27.2777 26.7251C27.3718 26.5119 27.4219 26.2826 27.4252 26.0505V5.15646C27.4219 4.92433 27.3718 4.6951 27.2777 4.48186C27.1836 4.26863 27.0473 4.07556 26.8767 3.91368C26.7061 3.7518 26.5044 3.62429 26.2832 3.53843C26.0621 3.45257 25.8257 3.41003 25.5877 3.41326ZM10.1127 23.8197H6.3627V12.8485H10.1127V23.8197ZM8.2377 11.3125C7.72052 11.3125 7.22453 11.1122 6.85884 10.7555C6.49314 10.3989 6.2877 9.91521 6.2877 9.41085C6.2877 8.90649 6.49314 8.4228 6.85884 8.06616C7.22453 7.70953 7.72052 7.50917 8.2377 7.50917C8.51231 7.4788 8.79042 7.50534 9.05379 7.58705C9.31716 7.66876 9.55987 7.8038 9.76602 7.98333C9.97216 8.16286 10.1371 8.38282 10.25 8.62883C10.363 8.87483 10.4213 9.14132 10.4213 9.41085C10.4213 9.68038 10.363 9.94687 10.25 10.1929C10.1371 10.4389 9.97216 10.6588 9.76602 10.8384C9.55987 11.0179 9.31716 11.1529 9.05379 11.2347C8.79042 11.3164 8.51231 11.3429 8.2377 11.3125ZM23.6377 23.8197H19.8877V17.9318C19.8877 16.4568 19.3502 15.4938 17.9877 15.4938C17.566 15.4968 17.1554 15.6258 16.8112 15.8634C16.467 16.1009 16.2058 16.4357 16.0627 16.8225C15.9649 17.109 15.9225 17.4108 15.9377 17.7124V23.8075H12.1877C12.1877 23.8075 12.1877 13.8359 12.1877 12.8363H15.9377V14.3845C16.2784 13.808 16.7738 13.3331 17.3707 13.0109C17.9677 12.6887 18.6434 12.5314 19.3252 12.5559C21.8252 12.5559 23.6377 14.1285 23.6377 17.5052V23.8197Z" fill="black"/>
</g>
<defs>
<clipPath id="clip0_191_2470">
<rect width="1440" height="1068" fill="white" transform="translate(-676 -551)"/>
</clipPath>
</defs>
</svg>
