<svg width="32" height="32" viewBox="0 0 32 32" fill="none" xmlns="http://www.w3.org/2000/svg">
<rect width="32" height="32" fill="#F5F5F5"/>
<g clip-path="url(#clip0_191_2470)">
<rect width="1440" height="1068" transform="translate(-772 -551)" fill="#E7E6CF"/>
<rect x="-266" y="-393" width="425" height="514" fill="#A8C256" fill-opacity="0.32"/>
<path d="M15.9998 12.3788C15.3458 12.3788 14.7065 12.5679 14.1628 12.9222C13.619 13.2766 13.1951 13.7802 12.9449 14.3695C12.6946 14.9587 12.6291 15.6071 12.7567 16.2326C12.8843 16.8581 13.1992 17.4327 13.6617 17.8837C14.1241 18.3347 14.7133 18.6418 15.3547 18.7663C15.9962 18.8907 16.661 18.8268 17.2652 18.5828C17.8695 18.3387 18.3859 17.9254 18.7492 17.3951C19.1126 16.8648 19.3065 16.2413 19.3065 15.6035C19.3065 15.18 19.221 14.7607 19.0548 14.3695C18.8886 13.9782 18.6451 13.6227 18.338 13.3233C18.031 13.0238 17.6664 12.7863 17.2652 12.6242C16.8641 12.4622 16.4341 12.3788 15.9998 12.3788ZM29.2398 9.19306C29.2328 8.18892 29.0432 7.19396 28.6798 6.25441C28.4122 5.56689 27.9981 4.94253 27.4649 4.42254C26.9317 3.90254 26.2915 3.49872 25.5865 3.23773C24.6231 2.88335 23.6028 2.69845 22.5732 2.69161C20.8532 2.60059 20.3465 2.60059 15.9998 2.60059C11.6532 2.60059 11.1465 2.60059 9.4265 2.69161C8.39685 2.69845 7.3766 2.88335 6.41317 3.23773C5.70818 3.49872 5.06796 3.90254 4.53475 4.42254C4.00154 4.94253 3.58746 5.56689 3.31984 6.25441C2.95646 7.19396 2.76685 8.18892 2.75984 9.19306C2.6665 10.8704 2.6665 11.3646 2.6665 15.6035C2.6665 19.8425 2.6665 20.3366 2.75984 22.0139C2.77419 23.0216 2.96354 24.0196 3.31984 24.9656C3.58627 25.65 4.00001 26.2707 4.53317 26.786C5.0641 27.3091 5.70569 27.7129 6.41317 27.9693C7.3766 28.3237 8.39685 28.5086 9.4265 28.5154C11.1465 28.6064 11.6532 28.6064 15.9998 28.6064C20.3465 28.6064 20.8532 28.6064 22.5732 28.5154C23.6028 28.5086 24.6231 28.3237 25.5865 27.9693C26.294 27.7129 26.9356 27.3091 27.4665 26.786C27.9997 26.2707 28.4134 25.65 28.6798 24.9656C29.0429 24.0214 29.2324 23.0223 29.2398 22.0139C29.3332 20.3366 29.3332 19.8425 29.3332 15.6035C29.3332 11.3646 29.3332 10.8704 29.2398 9.19306ZM25.8532 19.5954C25.8104 20.3978 25.6348 21.1882 25.3332 21.9359C25.0743 22.5597 24.6895 23.1263 24.2016 23.6021C23.7138 24.0778 23.1327 24.4531 22.4932 24.7055C21.7192 24.9833 20.9042 25.137 20.0798 25.1606C19.0265 25.1606 18.7465 25.1606 15.9998 25.1606C13.2532 25.1606 12.9732 25.1606 11.9198 25.1606C11.0955 25.137 10.2805 24.9833 9.5065 24.7055C8.84531 24.4659 8.24821 24.0836 7.75984 23.5873C7.27673 23.1208 6.90363 22.5573 6.6665 21.9359C6.38058 21.1819 6.22731 20.3862 6.21317 19.5824C6.21317 18.5552 6.21317 18.2821 6.21317 15.6035C6.21317 12.9249 6.21317 12.6518 6.21317 11.6246C6.22731 10.8208 6.38058 10.0251 6.6665 9.27108C6.91221 8.62627 7.3042 8.04397 7.81317 7.5677C8.29361 7.09911 8.87086 6.73564 9.5065 6.50146C10.2805 6.22373 11.0955 6.07004 11.9198 6.04636C12.9732 6.04636 13.2532 6.04636 15.9998 6.04636C18.7465 6.04636 19.0265 6.04636 20.0798 6.04636C20.9042 6.07004 21.7192 6.22373 22.4932 6.50146C23.1544 6.74108 23.7515 7.12336 24.2398 7.61971C24.7229 8.08619 25.096 8.64971 25.3332 9.27108C25.618 10.0259 25.7756 10.8207 25.7998 11.6246C25.7998 12.6518 25.7998 12.9249 25.7998 15.6035C25.7998 18.2821 25.8932 18.5552 25.8532 19.5824V19.5954ZM23.7198 9.92123C23.5611 9.50121 23.3108 9.11978 22.9862 8.80326C22.6616 8.48673 22.2705 8.24263 21.8398 8.08782C21.2485 7.88791 20.6256 7.79108 19.9998 7.80175C18.9598 7.80175 18.6665 7.80175 15.9998 7.80175C13.3332 7.80175 13.0398 7.80175 11.9998 7.80175C11.3709 7.80775 10.7479 7.9222 10.1598 8.13983C9.73574 8.28761 9.34876 8.52174 9.02462 8.82664C8.70047 9.13155 8.44659 9.50024 8.27984 9.90823C8.08621 10.4873 7.99161 11.0936 7.99984 11.7026C7.99984 12.7169 7.99984 13.0029 7.99984 15.6035C7.99984 18.2041 7.99984 18.4902 7.99984 19.5044C8.01306 20.1171 8.1302 20.7234 8.3465 21.2988C8.50525 21.7188 8.75555 22.1002 9.08012 22.4168C9.40469 22.7333 9.79582 22.9774 10.2265 23.1322C10.7954 23.3362 11.394 23.4504 11.9998 23.4703C13.0398 23.4703 13.3332 23.4703 15.9998 23.4703C18.6665 23.4703 18.9598 23.4703 19.9998 23.4703C20.6288 23.4643 21.2517 23.3498 21.8398 23.1322C22.2705 22.9774 22.6616 22.7333 22.9862 22.4168C23.3108 22.1002 23.5611 21.7188 23.7198 21.2988C23.943 20.7253 24.0604 20.1178 24.0665 19.5044C24.0665 18.4902 24.0665 18.2041 24.0665 15.6035C24.0665 13.0029 24.0665 12.7169 24.0665 11.7026C24.0669 11.0886 23.9493 10.48 23.7198 9.90823V9.92123ZM15.9998 20.5706C15.3316 20.5706 14.6699 20.442 14.0527 20.1923C13.4355 19.9425 12.8749 19.5764 12.403 19.115C11.9311 18.6536 11.5572 18.1059 11.3027 17.5034C11.0482 16.9008 10.9181 16.2552 10.9198 15.6035C10.9198 14.6205 11.2189 13.6597 11.7792 12.8426C12.3394 12.0255 13.1357 11.3888 14.0671 11.0133C14.9986 10.6377 16.0234 10.5401 17.0117 10.7328C18.0001 10.9255 18.9076 11.3999 19.6194 12.0958C20.3312 12.7918 20.8152 13.6781 21.0103 14.6425C21.2053 15.6068 21.1025 16.606 20.715 17.5134C20.3274 18.4208 19.6725 19.1956 18.8332 19.7398C17.9938 20.2841 17.0078 20.5732 15.9998 20.5706ZM21.3332 11.6116C21.0384 11.5812 20.7657 11.4455 20.5674 11.2306C20.3692 11.0157 20.2595 10.7369 20.2595 10.4478C20.2595 10.1588 20.3692 9.87998 20.5674 9.66511C20.7657 9.45024 21.0384 9.31451 21.3332 9.28408C21.6279 9.31451 21.9007 9.45024 22.0989 9.66511C22.2972 9.87998 22.4069 10.1588 22.4069 10.4478C22.4069 10.7369 22.2972 11.0157 22.0989 11.2306C21.9007 11.4455 21.6279 11.5812 21.3332 11.6116Z" fill="black"/>
</g>
<defs>
<clipPath id="clip0_191_2470">
<rect width="1440" height="1068" fill="white" transform="translate(-772 -551)"/>
</clipPath>
</defs>
</svg>
