<svg width="30" height="29" viewBox="0 0 30 29" fill="none" xmlns="http://www.w3.org/2000/svg">
<rect width="30" height="29" fill="#F5F5F5"/>
<g clip-path="url(#clip0_191_2470)">
<rect width="1440" height="1068" transform="translate(-726 -552)" fill="#E7E6CF"/>
<rect x="-220" y="-394" width="425" height="514" fill="#A8C256" fill-opacity="0.32"/>
<path d="M30 4.2219C28.8725 4.76881 27.6801 5.13035 26.46 5.29527C27.7473 4.43543 28.7119 3.08274 29.175 1.48814C27.9653 2.29328 26.6411 2.86055 25.26 3.16529C24.3368 2.04591 23.1075 1.30079 21.7647 1.04679C20.422 0.792798 19.0418 1.04429 17.8407 1.76183C16.6396 2.47937 15.6854 3.62237 15.1279 5.01156C14.5703 6.40076 14.4409 7.95757 14.76 9.43784C12.3141 9.29952 9.92166 8.58745 7.73798 7.34788C5.5543 6.10831 3.62827 4.36897 2.085 2.24285C1.54371 3.29974 1.25928 4.49665 1.26 5.71456C1.25808 6.84561 1.50633 7.95963 1.98263 8.95745C2.45894 9.95527 3.14853 10.8059 3.99 11.4337C3.01197 11.4039 2.05483 11.1105 1.2 10.5783V10.6622C1.20733 12.2469 1.70399 13.7802 2.60597 15.0026C3.50795 16.225 4.75988 17.0616 6.15 17.3708C5.61488 17.5529 5.05931 17.6489 4.5 17.6559C4.11284 17.6508 3.72663 17.6116 3.345 17.5385C3.74086 18.9017 4.50693 20.093 5.53661 20.9467C6.56629 21.8004 7.80836 22.274 9.09 22.3016C6.9258 24.2056 4.25383 25.2448 1.5 25.2534C0.998603 25.2552 0.497603 25.2216 0 25.1528C2.81164 27.1826 6.08822 28.2601 9.435 28.2555C11.7445 28.2823 14.0357 27.7943 16.1747 26.82C18.3136 25.8457 20.2575 24.4046 21.8928 22.5809C23.5281 20.7571 24.8219 18.5874 25.6988 16.1983C26.5757 13.8092 27.0181 11.2487 27 8.66635C27 8.38124 27 8.07935 27 7.77746C28.177 6.79601 29.1922 5.59284 30 4.2219Z" fill="black"/>
</g>
<defs>
<clipPath id="clip0_191_2470">
<rect width="1440" height="1068" fill="white" transform="translate(-726 -552)"/>
</clipPath>
</defs>
</svg>
